<svg width="1330" height="1080" viewBox="0 0 1330 1080" fill="none" xmlns="http://www.w3.org/2000/svg">
<g clip-path="url(#clip0_1_2)">
<path d="M1014.12 540C1014.12 732.456 857.952 888.408 665.712 888.408C473.256 888.408 317.304 732.456 317.304 540C317.304 347.544 473.04 191.592 665.496 191.592C857.952 191.592 1014.12 347.544 1014.12 540ZM665.496 0C367.2 0 125.496 241.704 125.496 540C125.496 838.296 367.2 1080 665.496 1080C963.792 1080 1205.5 838.296 1205.5 540C1205.5 241.704 963.792 0 665.496 0Z" fill="#E1251F"></path>
<path d="M1328.55 368H-0.446045V712H1328.55V368Z" fill="#000F9F"></path>
<path d="M1269.82 612.855C1269.82 637.343 1251.58 669.6 1207.67 669.6H1166.13V556.11H1209.53C1248.2 556.11 1269.82 586.171 1269.82 612.855ZM1243.81 612.855C1243.81 594.953 1232.16 578.74 1209.02 578.74H1190.44V646.97H1205.64C1228.27 646.97 1243.81 631.601 1243.81 612.855Z" fill="white"></path>
<path d="M1152.18 669.6H1129.38L1071.63 595.629V669.6H1047.31V556.11H1071.63L1127.86 628.054V556.11H1152.18V669.6Z" fill="white"></path>
<path d="M1034.21 618.428C1034.21 649.165 1012.6 671.627 980.845 671.627C949.095 671.627 927.477 649.165 927.477 618.428V556.11H951.797V619.104C951.797 639.707 964.801 649.165 980.845 649.165C996.889 649.165 1009.89 639.707 1009.89 619.104V556.11H1034.21V618.428Z" fill="white"></path>
<path d="M917.685 612.855C917.685 642.072 892.69 671.964 856.38 671.964C820.07 671.964 795.075 642.072 795.075 612.855C795.075 583.638 820.07 553.745 856.38 553.745C892.69 553.745 917.685 583.638 917.685 612.855ZM891.845 612.855C891.845 592.251 876.646 576.545 856.38 576.545C836.114 576.545 820.914 592.251 820.914 612.855C820.914 633.459 836.114 649.165 856.38 649.165C876.646 649.165 891.845 633.459 891.845 612.855Z" fill="white"></path>
<path d="M802.065 669.6H771.497L741.435 627.041H732.485V669.6H708.165V556.11H745.658C777.239 556.11 783.319 580.429 783.319 591.238C783.319 605.593 775.212 615.05 765.248 620.792L802.065 669.6ZM758.999 591.744C758.999 583.807 753.426 578.74 743.293 578.74H732.485V605.255H742.955C754.608 605.255 758.999 599.006 758.999 591.744Z" fill="white"></path>
<path d="M693.433 663.52C681.104 669.093 667.256 671.964 652.732 671.964C619.124 671.964 590.751 645.787 590.751 612.855C590.751 579.585 618.955 553.745 654.252 553.745C667.087 553.745 682.962 557.123 692.757 561.683V588.198C681.611 581.78 667.256 576.545 654.758 576.545C631.621 576.545 616.59 594.615 616.59 612.855C616.59 634.303 634.323 649.841 655.096 649.841C659.487 649.841 663.709 649.503 669.113 647.476V626.197H650.198V603.735H693.433V663.52Z" fill="white"></path>
<path d="M599.061 669.6H568.493L538.431 627.041H529.48V669.6H505.161V556.11H542.653C574.235 556.11 580.315 580.429 580.315 591.238C580.315 605.593 572.208 615.05 562.244 620.792L599.061 669.6ZM555.995 591.744C555.995 583.807 550.422 578.74 540.289 578.74H529.48V605.255H539.951C551.604 605.255 555.995 599.006 555.995 591.744Z" fill="white"></path>
<path d="M495.003 669.6H418.667V556.11H495.003V578.74H442.987V600.02H479.972V622.65H442.987V646.97H495.003V669.6Z" fill="white"></path>
<path d="M407.996 612.855C407.996 637.343 389.756 669.6 345.847 669.6H304.301V556.11H347.704C386.379 556.11 407.996 586.171 407.996 612.855ZM381.988 612.855C381.988 594.953 370.335 578.74 347.198 578.74H328.62V646.97H343.82C366.45 646.97 381.988 631.601 381.988 612.855Z" fill="white"></path>
<path d="M290.359 669.6H267.559L209.801 595.629V669.6H185.482V556.11H209.801L266.039 628.054V556.11H290.359V669.6Z" fill="white"></path>
<path d="M172.388 618.428C172.388 649.165 150.771 671.627 119.021 671.627C87.2703 671.627 65.6531 649.165 65.6531 618.428V556.11H89.9724V619.104C89.9724 639.707 102.977 649.165 119.021 649.165C135.065 649.165 148.069 639.707 148.069 619.104V556.11H172.388V618.428Z" fill="white"></path>
<path d="M890.658 407.07L850.464 470.57V520.56H826.144V470.57L785.95 407.07H813.985L838.304 447.602L862.623 407.07H890.658Z" fill="white"></path>
<path d="M806.237 520.56H732.435V407.07H756.754V497.93H806.237V520.56Z" fill="white"></path>
<path d="M723.612 445.575C723.612 467.53 705.372 482.392 681.729 482.392H667.542V520.56H643.223V407.07H681.391C708.75 407.07 723.612 423.62 723.612 445.575ZM697.941 444.393C697.941 436.962 693.55 429.7 680.04 429.7H667.542V459.762H680.209C689.159 459.762 697.941 456.046 697.941 444.393Z" fill="white"></path>
<path d="M634.4 445.575C634.4 467.53 616.161 482.392 592.517 482.392H578.33V520.56H554.011V407.07H592.179C619.538 407.07 634.4 423.62 634.4 445.575ZM608.73 444.393C608.73 436.962 604.339 429.7 590.828 429.7H578.33V459.762H590.997C599.948 459.762 608.73 456.046 608.73 444.393Z" fill="white"></path>
<path d="M546.975 520.56H521.135L512.86 497.254H470.47L462.195 520.56H436.355L480.434 407.07H502.896L546.975 520.56ZM505.26 476.312L491.75 438.313L478.07 476.312H505.26Z" fill="white"></path>
</g>
<defs>
<clipPath id="clip0_1_2">
<rect width="1329.05" height="1080" fill="white"></rect>
</clipPath>
</defs>
</svg>